<?xml version="1.0" encoding="UTF-8"?>
<svg width="79px" height="24px" viewBox="0 0 79 24" version="1.1" xmlns="http://www.w3.org/2000/svg" xmlns:xlink="http://www.w3.org/1999/xlink">
  <title>desktop-v1/COMMUNITY</title>
  <defs>
    <filter id="filter-1">
      <feColorMatrix in="SourceGraphic" values="0 0 0 0 0.000000 0 0 0 0 0.470588 0 0 0 0 0.941176 0 0 0 1.000000 0"></feColorMatrix>
    </filter>
  </defs>
  <g id="Symbols" stroke="none" stroke-width="1" fill="none" fill-rule="evenodd">
    <g id="logo/community">
      <g id="community-01" fill="#FFFFFF">
        <path d="M5.18872992,8.74967739 L7.32435672,8.74863252 C7.61065945,8.7484723 7.88529804,8.86205952 8.08784748,9.06440329 C8.29039692,9.26674707 8.40426309,9.54127012 8.40439356,9.82757286 L8.40681176,14.738838 C8.40697644,15.0251577 8.29338681,15.2998143 8.09103427,15.5023789 C7.88868173,15.7049435 7.61414426,15.8188207 7.3278246,15.8189557 L6.02083955,15.8195978 L6.01775707,9.43159599 C6.01770348,9.38120855 5.99355692,9.33388513 5.95279025,9.30427136 L5.18872992,8.74967739 Z M11.9234453,22.9376961 C8.58418954,22.9424495 5.424077,21.4280027 3.33590214,18.8222058 C3.3251482,18.8086011 3.32310033,18.7900526 3.33062737,18.7744297 C3.3381544,18.7588067 3.35393656,18.7488486 3.37127809,18.7487802 L9.25702727,18.7458247 C9.31164534,18.7458542 9.36486529,18.7285591 9.40903172,18.6964272 L11.6577428,17.0608821 C11.6985054,17.0312861 11.7226168,16.9839488 11.7225867,16.933575 L11.7179255,7.58535058 C11.7179555,7.53492816 11.6938128,7.48754722 11.6530017,7.4579351 L9.40259044,5.82462015 C9.35839279,5.79259865 9.30521263,5.7753505 9.25063416,5.77533553 L2.87852785,5.77851092 C2.86176253,5.77848771 2.84638061,5.76920781 2.83854228,5.75438766 C2.83070395,5.7395675 2.83169079,5.72163022 2.84110758,5.70775937 C4.82369074,2.82218393 8.14674336,0.929111489 11.9124495,0.927251959 C15.6781557,0.925395167 19.0030974,2.81518383 20.9885889,5.69873559 C20.9980255,5.71260201 20.9990343,5.73054576 20.9912114,5.74538251 C20.9833885,5.76021927 20.9680126,5.76952393 20.9512399,5.7695711 L19.367713,5.77033191 C19.3152734,5.77036492 19.2676066,5.80078973 19.2454966,5.84834027 L18.8957428,6.59922796 L17.8227581,5.82049572 C17.7785664,5.78838513 17.7253304,5.77111523 17.6707044,5.77116912 L15.1388612,5.77240376 C15.0842338,5.77248081 15.0310243,5.78979736 14.9868148,5.8218859 L12.738102,7.45743684 C12.6974017,7.48709303 12.6733345,7.53442196 12.6733465,7.58478075 L12.677878,16.933054 C12.6779338,16.9834452 12.702085,17.0307709 12.7428569,17.0603838 L14.993255,18.6936988 C15.0375065,18.7257119 15.0907319,18.7429439 15.145349,18.7429401 L20.4713619,18.7403149 C20.4886994,18.7403459 20.5044949,18.7502806 20.5120316,18.7658943 C20.5195683,18.781508 20.517521,18.8000553 20.5067602,18.8136493 C18.4212087,21.4214906 15.2626608,22.9390819 11.9234453,22.9376961 M1.60598312,8.26828154 L2.63605641,9.01597767 C2.67806363,9.04638072 2.70293587,9.09509023 2.70293163,9.14694533 L2.70718235,17.8036204 C2.70718235,17.8235773 2.69405387,17.8411559 2.67491362,17.8468065 C2.65577337,17.8524571 2.63519755,17.8448305 2.62436411,17.82807 C0.822044594,14.9834362 0.418890612,11.4709926 1.5298233,8.29197929 C1.53505773,8.27717501 1.54697072,8.26570855 1.56196408,8.26104325 C1.57695745,8.25637794 1.59327312,8.25906082 1.60598312,8.26828154 M15.1598774,8.74477081 L18.3588392,8.74317382 L18.3596799,10.504067 C18.3596867,10.5261424 18.3684674,10.5473099 18.3840883,10.5629083 C18.3997092,10.5785067 18.4208894,10.5872568 18.4429647,10.5872318 L21.1207376,10.5858987 C21.1683178,10.5859434 21.2088503,10.5513465 21.2162777,10.5043495 L21.7444799,7.15847077 C21.7475848,7.13907188 21.7628823,7.12391009 21.7823081,7.12097806 C21.8017338,7.11804602 21.8208248,7.1280174 21.8295169,7.1456357 C23.3814298,10.3645639 23.2764191,14.1361146 21.5478011,17.2637035 C21.5377659,17.2815253 21.5169701,17.2903326 21.4971876,17.2851389 C21.4774051,17.2799452 21.4636175,17.2620584 21.4636309,17.2416055 L21.4621416,14.1834819 C21.4620805,14.1375299 21.4248092,14.1003122 21.3788571,14.1003171 L18.4446233,14.1017514 C18.3987047,14.1017905 18.3615016,14.1390268 18.3615033,14.1849454 L18.3623495,15.8134057 L17.0716501,15.8140206 C16.7853433,15.8141928 16.5106975,15.7006086 16.3081458,15.4982613 C16.1055941,15.2959139 15.9917328,15.0213828 15.9916161,14.735076 L15.9889138,9.42669423 C15.9889041,9.37627827 15.9647641,9.32891263 15.9239766,9.2992791 L15.1598774,8.74477081 Z M11.912051,0.0340647752 C5.34066452,0.0373008623 0.0162712968,5.36708069 0.0195480616,11.9383777 C0.0227321916,18.5096266 5.35247176,23.8341052 11.9237733,23.8308308 C18.4951477,23.8275947 23.8196356,18.4978624 23.8163588,11.926565 C23.813079,5.3552676 18.4833395,0.0307907607 11.912051,0.0340647752" id="Shape"></path>
        <rect id="Rectangle" x="32.8141708" y="8.26965486" width="1" height="2.65476225"></rect>
        <path d="M34.78451,6.69813268 L32.1682881,6.69813268 C31.9227799,6.69813268 31.687315,6.79559964 31.5137141,6.96919965 C31.3401131,7.14279966 31.2426435,7.37826402 31.2426435,7.62377219 L31.2426435,16.2463276 C31.2426435,16.491836 31.3401124,16.7273006 31.5137135,16.9009008 C31.6873146,17.0745009 31.9227798,17.1719671 32.1682881,17.1719671 L34.78451,17.1719671 C35.2951553,17.1705918 35.7087727,16.7569729 35.7101461,16.2463276 L35.7101461,7.62342809 C35.7101461,7.3779749 35.6125725,7.14258864 35.4389789,6.96905897 C35.2653854,6.7955293 35.0299632,6.69813268 34.78451,6.69813268 Z M34.1258904,15.5880569 L32.8268982,15.5880569 L32.8268982,10.9244168 L32.8141708,10.9244168 L32.8141708,8.2696552 L34.1258904,8.2696552 L34.1258904,15.5880569 Z" id="Shape"></path>
        <path d="M28.360996,10.1326358 L28.360996,8.28205258 L27.0492678,8.28205258 L27.0492678,10.4722704 C27.0492752,10.4782981 27.0461513,10.4838969 27.0410179,10.4870562 L27.0410179,13.3830398 C27.0462183,13.3861425 27.0493644,13.3917876 27.0492678,13.3978425 L27.0492678,15.5877076 L28.360996,15.5877076 L28.360996,13.737461 C28.3610113,13.7274808 28.366148,13.718207 28.3746001,13.7128998 C28.3830522,13.7075926 28.3936367,13.706995 28.4026325,13.711317 L29.9287364,14.4339352 C29.9388859,14.4386643 29.9453413,14.4488823 29.9452543,14.4600791 L29.9452543,16.2466807 C29.9452543,16.2783355 29.9435329,16.3096376 29.9404311,16.3406035 C29.9374939,16.3713618 29.9327843,16.4019249 29.926326,16.4321406 C29.9218482,16.453815 29.9166911,16.4751536 29.9108413,16.4964918 C29.906019,16.5143852 29.9005134,16.5319378 29.8943243,16.5491494 C29.8059931,16.7998269 29.6153686,17.0012035 29.36991,17.1031432 C29.3616515,17.1065877 29.3530489,17.1100318 29.3444463,17.1131222 C29.3341232,17.1172553 29.323797,17.1206997 29.3134721,17.1241442 C29.2928307,17.1310163 29.2721814,17.137216 29.2508428,17.1427258 C29.2058917,17.1543966 29.1601033,17.1625649 29.1138894,17.1671572 C29.0829235,17.1702486 29.0516128,17.1719626 29.0196136,17.1719626 L26.4033841,17.1719626 C26.1578778,17.1719626 25.9224152,17.0744938 25.748816,16.9008947 C25.5752168,16.7272955 25.477748,16.4918329 25.477748,16.2463266 L25.477748,7.62376909 C25.477748,7.37826273 25.5752167,7.14280004 25.7488159,6.96920079 C25.9224151,6.79560154 26.1578777,6.6981327 26.4033841,6.6981327 L29.0196153,6.6981327 C29.0511015,6.6981327 29.0825663,6.69977205 29.1138912,6.70295498 C29.1750765,6.70916956 29.2354846,6.72150231 29.2942095,6.73976825 C29.314162,6.74596786 29.333776,6.75285097 29.3530513,6.76041758 C29.362679,6.76419825 29.3723232,6.76799544 29.3819509,6.77211195 C29.3912417,6.77624498 29.4005325,6.78037836 29.4101698,6.78484758 C29.6551278,6.90002846 29.8380482,7.11584092 29.9115312,7.37636218 C29.9170341,7.3966588 29.9222005,7.41730848 29.9263256,7.43795678 C29.9326165,7.46820302 29.9373246,7.49875695 29.9404308,7.52949392 C29.9435308,7.56045983 29.9452543,7.59176193 29.9452543,7.62343428 L29.9452543,9.41001896 C29.945161,9.42116371 29.9387612,9.4312936 29.9287361,9.43616294 L28.4026322,10.1587811 C28.3936364,10.1631067 28.3830498,10.1625105 28.3745965,10.1572023 C28.3661433,10.1518941 28.3610075,10.1426175 28.360996,10.1326358 L28.360996,10.1326358 Z" id="Path"></path>
        <path d="M56.97179,6.69813271 L55.4582707,6.69813271 C55.4488965,6.69813271 55.4399068,6.70185938 55.4332793,6.70848905 C55.4266519,6.71511872 55.4229295,6.72410966 55.4229313,6.73348388 L55.4229313,15.5879499 L54.2437013,15.5879499 C54.2085504,15.5879602 54.1748362,15.5740011 54.1499808,15.5491456 C54.1251253,15.5242902 54.1111663,15.490576 54.1111766,15.4554251 L54.1111766,6.73348388 C54.1111777,6.72410789 54.1074536,6.7151156 54.1008238,6.70848574 C54.094194,6.70185588 54.0852018,6.69813271 54.0758258,6.69813271 L51.63637,6.69813271 C51.6214625,6.69813271 51.6081712,6.70752607 51.6031507,6.72156276 C51.5981303,6.73559946 51.6024613,6.75127696 51.6139754,6.76074586 L52.539437,7.52271197 L52.539437,16.2111564 C52.5394195,16.4660356 52.640662,16.7104807 52.8208887,16.8907077 C53.0011153,17.0709347 53.2455601,17.1721608 53.5004393,17.1721608 L56.97179,17.1721608 C56.9912969,17.1721608 57.0071295,17.1563165 57.0071295,17.1368097 L57.0071295,6.73348388 C57.0071295,6.72410966 57.0034089,6.71511872 56.9967814,6.70848905 C56.990154,6.70185938 56.9811643,6.69813271 56.97179,6.69813271" id="Path"></path>
        <path d="M63.2115561,6.69813265 L61.6980368,6.69813265 C61.6886625,6.69813265 61.6796728,6.70185938 61.6730454,6.70848905 C61.6664179,6.71511872 61.6626956,6.72410966 61.6626973,6.73348388 L61.6626973,12.1279033 L59.7622073,6.72608427 C59.7587944,6.70977426 59.7443989,6.69813265 59.7277357,6.69813265 L58.3373151,6.69813265 C58.3178246,6.69813265 58.3020592,6.71399338 58.3020592,6.73348388 L58.3020592,17.1368079 C58.3020592,17.1562984 58.3178246,17.1721591 58.3373151,17.1721591 L59.8382581,17.1721591 C59.8476341,17.1721591 59.8566265,17.1684361 59.8632563,17.1618062 C59.8698862,17.1551763 59.8736103,17.146184 59.8736093,17.1368079 L59.8736093,11.7976021 L61.8720456,17.1438211 C61.8753882,17.1603141 61.8898906,17.1721591 61.9067189,17.1721591 L63.2115557,17.1721591 C63.2310438,17.1721591 63.2467995,17.1562961 63.2467995,17.1368079 L63.2467995,6.73348388 C63.2467995,6.71399572 63.2310438,6.69813265 63.2115557,6.69813265" id="Path"></path>
        <path d="M66.1043009,6.69813271 L64.6032509,6.69813271 C64.5938749,6.69813271 64.5848826,6.70185588 64.5782529,6.70848574 C64.5716231,6.7151156 64.5679001,6.72410789 64.5679001,6.73348388 L64.5679001,17.1368079 C64.5679001,17.1461839 64.5716231,17.1551762 64.5782529,17.1618061 C64.5848826,17.1684359 64.5938749,17.1721591 64.6032509,17.1721591 L66.1043009,17.1721591 C66.1136751,17.1721591 66.1226648,17.1684324 66.1292923,17.1618028 C66.1359198,17.1551731 66.1396404,17.1461822 66.1396404,17.1368079 L66.1396404,6.73348388 C66.1396404,6.72410966 66.1359198,6.71511872 66.1292923,6.70848905 C66.1226648,6.70185938 66.1136751,6.69813271 66.1043009,6.69813271" id="Path"></path>
        <polygon id="Path" points="37.4757469 6.69813271 39.0208144 6.69813271 39.8651518 12.0878806 40.2244957 14.8545877 40.2963291 14.8545877 40.6556733 12.0878806 41.5359864 6.69813271 43.045137 6.69813271 43.4403386 17.1721608 42.1468063 17.1721608 42.0210387 12.3932903 41.9671637 10.1295942 41.9312472 10.1295942 41.607879 12.3932903 40.853274 17.1721608 39.6136741 17.1721608 38.8590694 12.4830839 38.5357008 10.0397449 38.4638678 10.0397449 38.3919752 12.4292089 38.2841674 17.1721608 37.0625277 17.1721608"></polygon>
        <path d="M43.4760721,17.2065795 L42.113283,17.2065795 L41.9866383,12.3941977 L41.9374924,10.3292048 L41.6419463,12.3981639 L40.8826742,17.2065795 L39.584354,17.2065795 L38.8250995,12.4885575 L38.5055429,10.0741526 L38.4972596,10.0741526 L38.4263722,12.430256 L38.3178074,17.2065795 L37.0267296,17.2065795 L37.442662,6.66372542 L39.0502556,6.66372542 L39.8991475,12.0825545 L40.2547187,14.8201632 L40.266102,14.8201632 L40.6215472,12.0834282 L41.506741,6.66372542 L43.078269,6.66372542 L43.4760721,17.2065795 Z M42.1803227,17.1377573 L43.4046134,17.1377573 L43.0120022,6.7325462 L41.5652284,6.7325462 L40.6896371,12.0934096 L40.3265552,14.888985 L40.1942651,14.888985 L39.8310239,12.0923002 L38.9913801,6.7325462 L37.5088267,6.7325462 L37.0983228,17.1377573 L38.2505333,17.1377573 L38.3575786,12.4284402 L38.4304735,10.0053294 L38.5658636,10.0053294 L38.8931911,12.4785761 L39.6429935,17.1377573 L40.8238668,17.1377573 L41.5738898,12.3879123 L41.9014103,10.0951859 L42.0007686,10.0951859 L42.0554422,12.3924824 L42.1803227,17.1377573 Z" id="Shape"></path>
        <polygon id="Path" points="45.2057695 6.69813271 46.7508369 6.69813271 47.5951739 12.0878806 47.9545182 14.8545877 48.0263516 14.8545877 48.3856955 12.0878806 49.2660086 6.69813271 50.7751592 6.69813271 51.1703611 17.1721608 49.8768274 17.1721608 49.7510599 12.393292 49.6971849 10.1295959 49.6612684 10.1295959 49.3379002 12.393292 48.5832965 17.1721608 47.3436966 17.1721608 46.5890916 12.4830839 46.2657234 10.0397449 46.19389 10.0397449 46.1219977 12.4292089 46.01419 17.1721608 44.7925502 17.1721608"></polygon>
        <path d="M51.2060939,17.2065795 L49.8433048,17.2065795 L49.7166601,12.3941977 L49.6675142,10.3292048 L49.3719682,12.3981639 L48.6126964,17.2065795 L47.3143762,17.2065795 L46.5551216,12.4885575 L46.2355651,10.0741526 L46.2272818,10.0741526 L46.1563943,12.430256 L46.0478296,17.2065795 L44.7567517,17.2065795 L45.1726842,6.66372473 L46.7802778,6.66372473 L47.6291693,12.0825545 L47.9847488,14.8201632 L47.9961238,14.8201632 L48.351569,12.0834282 L49.2367629,6.66372473 L50.8082909,6.66372473 L51.2060939,17.2065795 Z M49.9103445,17.1377573 L51.1346352,17.1377573 L50.742024,6.7325462 L49.2952502,6.7325462 L48.4196589,12.0934096 L48.056577,14.888985 L47.9242956,14.888985 L47.5610457,12.0923006 L46.7214019,6.7325462 L45.2388485,6.7325462 L44.8283432,17.1377573 L45.9805538,17.1377573 L46.087599,12.4284402 L46.160494,10.0053294 L46.2958841,10.0053294 L46.6232112,12.4785761 L47.3730136,17.1377573 L48.5538883,17.1377573 L49.3039116,12.3879123 L49.6314321,10.0951859 L49.7307904,10.0951859 L49.7854641,12.3924824 L49.9103445,17.1377573 Z" id="Shape"></path>
        <polygon id="Path" points="76.4815409 13.5129018 76.4815409 17.1721608 75.0465478 17.1721608 75.0465478 13.4770417 73.4321682 6.71465314 74.8671592 6.71465314 75.4770452 10.0330631 75.7640436 11.8447615 75.8178615 11.8447615 76.1227895 10.0330631 76.714717 6.71465314 78.0600287 6.71465314"></polygon>
        <path d="M76.5159519,17.2065781 L75.0121374,17.2065781 L75.0121374,13.4811156 L73.3885819,6.6802572 L74.8958258,6.6802572 L75.5108864,10.0268369 L75.791168,11.7960471 L76.088865,10.0273396 L76.6859055,6.6802572 L78.1033514,6.6802572 L76.5159537,13.5168353 L76.5159519,17.2065781 Z M75.0809565,17.1377573 L76.4471312,17.1377573 L76.4471312,13.5089732 L76.4480217,13.5051089 L78.0167188,6.74907936 L76.7435343,6.74907936 L76.1566676,10.0391021 L75.8469658,11.8791843 L75.7346613,11.8791843 L75.4430553,10.0384301 L74.838496,6.74907936 L73.4757655,6.74907936 L75.0809582,13.4729837 L75.0809565,17.1377573 Z" id="Shape"></path>
        <path d="M71.6494227,8.23227279 L70.614011,8.23227279 C70.631933,8.23103734 70.6475431,8.24438248 70.6491095,8.26227865 L70.6491095,17.1421687 C70.6475358,17.160059 70.6319277,17.1733955 70.614011,17.1722558 L69.1130342,17.1722558 C69.095009,17.1735293 69.0792235,17.1601722 69.0775915,17.1421687 L69.0775915,8.26227865 C69.0792161,8.24426929 69.0950037,8.23090355 69.1130342,8.23227279 L68.0580062,8.23227279 L66.4864864,6.72712381 C66.4865611,6.7179034 66.4903059,6.7090926 66.4968925,6.70263988 C66.5034792,6.69618716 66.512365,6.69262418 66.521585,6.6927362 L73.1858424,6.6927362 C73.1950624,6.69262418 73.2039483,6.69618716 73.2105349,6.70263988 C73.2171216,6.7090926 73.2208663,6.7179034 73.220941,6.72712381 L71.6494227,8.23227279 Z" id="Path"></path>
      </g>
    </g>
  </g>
</svg>
