<?xml version="1.0" encoding="UTF-8"?>
<svg width="26px" height="26px" viewBox="0 0 26 26" version="1.1" xmlns="http://www.w3.org/2000/svg" xmlns:xlink="http://www.w3.org/1999/xlink">
    <title>DC</title>
    <defs>
        <polygon id="path-1" points="9.81132075e-05 -9.81132076e-05 25.5643774 -9.81132076e-05 25.5643774 25.5642302 9.81132075e-05 25.5642302"></polygon>
    </defs>
    <g id="Page-1" stroke="none" stroke-width="1" fill="none" fill-rule="evenodd">
        <g id="Desktop" transform="translate(-58.000000, -13.000000)">
            <g id="DC" transform="translate(58.000000, 13.000000)">
                <mask id="mask-2" fill="white">
                    <use xlink:href="#path-1"></use>
                </mask>
                <g id="Clip-2"></g>
                <path d="M5.55477736,9.35941132 L7.84915472,9.35941132 C8.4893434,9.35941132 9.00885283,9.87892075 9.00885283,10.5191094 L9.00885283,15.7951472 C9.00885283,16.4353358 8.4893434,16.9548453 7.84915472,16.9548453 L6.44466415,16.9548453 L6.44466415,10.092317 C6.44466415,10.0383547 6.41915472,9.98733585 6.37549434,9.95544906 L5.55477736,9.35941132 Z M12.7817962,24.6047321 C9.05251321,24.6047321 5.72598491,22.8774491 3.55915472,20.1788453 C3.53364528,20.1474491 3.55670189,20.1003547 3.59741887,20.1003547 L9.91983396,20.1003547 C9.97870189,20.1003547 10.0360981,20.0817132 10.0831925,20.0473736 L12.4997208,18.2916377 C12.5438717,18.2597509 12.5698717,18.2087321 12.5698717,18.1542792 L12.5698717,8.11190189 C12.5698717,8.05793962 12.5438717,8.00692075 12.4997208,7.97503396 L10.0831925,6.21929811 C10.0360981,6.18495849 9.97870189,6.16631698 9.91983396,6.16631698 L3.07447547,6.16631698 C3.03572075,6.16631698 3.01217358,6.12216604 3.03424906,6.09027925 C5.16575849,2.99137358 8.73658868,0.959449057 12.7817962,0.959449057 C16.8274943,0.959449057 20.3983245,2.99137358 22.529834,6.09027925 C22.5514189,6.12216604 22.5288528,6.16631698 22.4896075,6.16631698 L20.7888151,6.16631698 C20.7319094,6.16631698 20.6808906,6.19918491 20.6568528,6.25020377 L20.2810792,7.05669434 L19.1287396,6.21929811 C19.0811547,6.18495849 19.0242491,6.16631698 18.9653811,6.16631698 L16.245683,6.16631698 C16.1868151,6.16631698 16.1299094,6.18495849 16.0823245,6.21929811 L13.6657962,7.97503396 C13.6216453,8.00692075 13.5961358,8.05793962 13.5961358,8.11190189 L13.5961358,18.1542792 C13.5961358,18.2087321 13.6216453,18.2597509 13.6657962,18.2916377 L16.0823245,20.0473736 C16.1299094,20.0817132 16.1868151,20.1003547 16.245683,20.1003547 L21.9671547,20.1003547 C22.0078717,20.1003547 22.0304377,20.1474491 22.0049283,20.1788453 C19.8380981,22.8774491 16.5120604,24.6047321 12.7817962,24.6047321 L12.7817962,24.6047321 Z M1.70628679,8.84039245 L2.81251321,9.64393962 C2.85764528,9.67680755 2.88462642,9.72880755 2.88462642,9.78473208 L2.88462642,19.0843925 C2.88462642,19.1324679 2.8213434,19.1511094 2.7953434,19.1103925 C1.63319245,17.2805811 0.959645283,15.110317 0.959645283,12.7820906 C0.959645283,11.4094868 1.19413585,10.0913358 1.62436226,8.86590189 C1.63662642,8.83205283 1.67783396,8.81929811 1.70628679,8.84039245 L1.70628679,8.84039245 Z M16.2667774,9.35941132 L19.7031925,9.35941132 L19.7031925,11.251034 C19.7031925,11.3005811 19.7434189,11.3408075 19.7924755,11.3408075 L22.6691547,11.3408075 C22.7201736,11.3408075 22.763834,11.303034 22.7721736,11.2529962 L23.3412302,7.65861887 C23.3480981,7.61201509 23.4118717,7.60220377 23.4319849,7.64488302 C24.1835321,9.19850566 24.6049283,10.9409962 24.6049283,12.7820906 C24.6049283,14.8620906 24.0672679,16.8165057 23.1244,18.5143547 C23.1003623,18.5575245 23.0341358,18.5403547 23.0341358,18.4908075 L23.0341358,15.2054868 C23.0341358,15.1559396 22.9939094,15.1157132 22.9443623,15.1157132 L19.7924755,15.1157132 C19.7434189,15.1157132 19.7031925,15.1559396 19.7031925,15.2054868 L19.7031925,16.9548453 L18.3168528,16.9548453 C17.6761736,16.9548453 17.1566642,16.4353358 17.1566642,15.7951472 L17.1566642,10.092317 C17.1566642,10.0383547 17.1311547,9.98733585 17.0870038,9.95544906 L16.2667774,9.35941132 Z M12.7817962,-9.81132076e-05 C5.72304151,-9.81132076e-05 9.81132075e-05,5.72284528 9.81132075e-05,12.7820906 C9.81132075e-05,19.8413358 5.72304151,25.5642792 12.7817962,25.5642792 C19.8415321,25.5642792 25.5644755,19.8413358 25.5644755,12.7820906 C25.5644755,5.72284528 19.8415321,-9.81132076e-05 12.7817962,-9.81132076e-05 L12.7817962,-9.81132076e-05 Z" id="Fill-1" fill="#0282F9" mask="url(#mask-2)"></path>
            </g>
        </g>
    </g>
</svg>
