<?xml version="1.0" encoding="UTF-8"?>
<svg width="48px" height="24px" viewBox="0 0 48 24" version="1.1" xmlns="http://www.w3.org/2000/svg" xmlns:xlink="http://www.w3.org/1999/xlink">
  <title>Untitled-1</title>
  <g id="Symbols" stroke="none" stroke-width="1" fill="none" fill-rule="evenodd">
    <g id="logo/SHOP" transform="translate(-2.000000, 0.000000)" fill="#FFFFFF" fill-rule="nonzero">
      <g id="Untitled-1" transform="translate(2.000000, 0.000000)">
        <path d="M25.2640693,14.2095238 L25.2640693,16.3463203 C25.2640693,16.8623377 25.6796537,17.2779221 26.195671,17.2779221 L28.8277056,17.2779221 C29.3402597,17.2779221 29.7593074,16.8588745 29.7593074,16.3463203 L29.7593074,11.9238095 C29.7593074,11.4077922 29.3437229,10.9922078 28.8277056,10.9922078 L26.84329,10.9922078 L26.84329,8.32207792 L28.1627706,8.32207792 L28.1627706,10.195671 C28.1627706,10.2164502 28.1835498,10.230303 28.204329,10.2233766 L29.7385281,9.4961039 C29.7489177,9.49264069 29.7558442,9.48225108 29.7558442,9.46839827 L29.7558442,7.67099567 C29.7558442,7.15497835 29.3402597,6.73939394 28.8242424,6.73939394 L26.1922078,6.73939394 C25.6761905,6.73939394 25.2606061,7.15497835 25.2606061,7.67099567 L25.2606061,11.64329 C25.2606061,12.1593074 25.6761905,12.5748918 26.1922078,12.5748918 L28.1627706,12.5748918 L28.1627706,15.6883117 L26.84329,15.6883117 L26.84329,13.4857143 C26.84329,13.4718615 26.8294372,13.4649351 26.8190476,13.4683983 L25.2709957,14.1991342 C25.2675325,14.1991342 25.2640693,14.2060606 25.2640693,14.2095238" id="Path"></path>
        <g id="Group" transform="translate(36.848485, 6.718615)">
          <rect id="Rectangle" x="1.6" y="1.6" width="1" height="2.67359307"></rect>
          <path d="M3.58441558,0.0207792208 L0.952380952,0.0207792208 C0.436363636,0.0207792208 0.0207792208,0.436363636 0.0207792208,0.952380952 L0.0207792208,9.62770563 C0.0207792208,10.1437229 0.436363636,10.5593074 0.952380952,10.5593074 L3.58441558,10.5593074 C4.0969697,10.5593074 4.51601732,10.1402597 4.51601732,9.62770563 L4.51601732,0.952380952 C4.51601732,0.436363636 4.0969697,0.0207792208 3.58441558,0.0207792208 Z M2.91948052,8.96623377 L1.61038961,8.96623377 L1.61038961,4.27359307 L1.5965368,4.27359307 L1.5965368,1.6 L2.91601732,1.6 L2.91601732,8.96623377 L2.91948052,8.96623377 Z" id="Shape"></path>
        </g>
        <path d="M46.1818182,6.73939394 L42.6874459,6.73939394 C42.6666667,6.73939394 42.6528139,6.75670996 42.6528139,6.77402597 L42.6528139,17.24329 C42.6528139,17.2640693 42.6701299,17.2779221 42.6874459,17.2779221 L44.1974026,17.2779221 C44.2181818,17.2779221 44.2320346,17.2606061 44.2320346,17.24329 L44.2320346,13.412987 L45.0424242,13.412987 L45.0770563,13.4095238 C45.6554113,13.412987 46.3272727,13.412987 46.3619048,13.4060606 C46.4242424,13.3922078 46.6597403,13.3506494 46.8190476,13.1428571 L46.8190476,13.1428571 C46.978355,12.969697 47.1307569,12.7064935 47.1307569,12.4571429 L47.1307569,7.70562771 C47.1341991,7.17229437 46.7082251,6.73939394 46.1818182,6.73939394 Z M44.1419913,11.8337662 L44.1419913,8.33246753 L45.2744589,8.33246753 C45.3852814,8.33246753 45.4718615,8.42251082 45.4718615,8.52987013 L45.4718615,11.6363636 C45.4718615,11.7437229 45.3852814,11.8337662 45.2744589,11.8337662 L44.1419913,11.8337662 Z" id="Shape"></path>
        <path d="M35.5186147,6.77056277 L35.5186147,17.2398268 C35.5186147,17.2606061 35.5012987,17.2744589 35.4839827,17.2744589 L33.974026,17.2744589 C33.9532468,17.2744589 33.9393939,17.2571429 33.9393939,17.2398268 L33.9393939,12.8380952 L32.6164502,12.8380952 L32.6164502,17.2467532 C32.6164502,17.2675325 32.5991342,17.2813853 32.5818182,17.2813853 L31.0718615,17.2813853 C31.0510823,17.2813853 31.0372294,17.2640693 31.0372294,17.2467532 L31.0372294,6.77748918 C31.0372294,6.75670996 31.0545455,6.74285714 31.0718615,6.74285714 L32.5818182,6.74285714 C32.6025974,6.74285714 32.6164502,6.76017316 32.6164502,6.77748918 L32.6164502,11.1722944 L33.9393939,11.1722944 L33.9393939,6.77056277 C33.9393939,6.74978355 33.95671,6.73593074 33.974026,6.73593074 L35.4839827,6.73593074 C35.5012987,6.73593074 35.5186147,6.74978355 35.5186147,6.77056277 Z" id="Path"></path>
        <path d="M5.20519481,8.8 L7.35584416,8.8 C7.95497835,8.8 8.44329004,9.28484848 8.44329004,9.88744589 L8.44675325,14.8294372 C8.44675325,15.4285714 7.96190476,15.9168831 7.35930736,15.9168831 L6.04329004,15.9168831 L6.03982684,9.48917749 C6.03982684,9.43722944 6.01558442,9.39220779 5.97402597,9.36103896 L5.20519481,8.8 Z M11.982684,23.0787934 C8.48831169,23.0822511 5.37142857,21.4649351 3.33852814,18.9367965 C3.31428571,18.9056277 3.33506494,18.8640693 3.37316017,18.8640693 L9.2952381,18.8606061 C9.35064935,18.8606061 9.4025974,18.84329 9.44761905,18.8121212 L11.7090909,17.1670996 C11.7506494,17.1359307 11.7748918,17.0909091 11.7748918,17.038961 L11.7748918,7.62597403 C11.7748918,7.57402597 11.7506494,7.52900433 11.7090909,7.4978355 L9.44415584,5.85281385 C9.3991342,5.82164502 9.34718615,5.804329 9.29177489,5.804329 L2.87792208,5.80779221 C2.83982684,5.80779221 2.81904762,5.76623377 2.83982684,5.73506494 C4.83809524,2.83290043 8.18354978,0.928138528 11.9722944,0.92467061 C15.761039,0.921212121 19.1099567,2.82597403 21.1082251,5.72813853 C21.1290043,5.75930736 21.1082251,5.8008658 21.0701299,5.8008658 L19.4770563,5.8008658 C19.4251082,5.8008658 19.3766234,5.83203463 19.352381,5.88051948 L18.9991342,6.63549784 L17.9220779,5.85281385 C17.8770563,5.82164502 17.8251082,5.804329 17.769697,5.804329 L15.2207792,5.804329 C15.165368,5.804329 15.1134199,5.82164502 15.0683983,5.85281385 L12.8069264,7.4978355 C12.765368,7.52900433 12.7411255,7.57402597 12.7411255,7.62597403 L12.7445887,17.0354978 C12.7445887,17.0874459 12.7688312,17.1324675 12.8103896,17.1636364 L15.0753247,18.808658 C15.1203463,18.8398268 15.1722944,18.8571429 15.2277056,18.8571429 L20.5887446,18.8536797 C20.6268398,18.8536797 20.647619,18.8987013 20.6233766,18.9264069 C18.5939394,21.4580087 15.4770563,23.0753247 11.982684,23.0787934 M1.6,8.31515152 L2.63549784,9.06666667 C2.67705628,9.0978355 2.7012987,9.14632035 2.7012987,9.1982684 L2.7047619,17.9116883 C2.7047619,17.95671 2.64588745,17.974026 2.62164502,17.9359307 C1.53419913,16.221645 0.903896104,14.1887446 0.9004329,12.0069264 C0.9004329,10.7220779 1.11861472,9.48571429 1.52034632,8.33593074 C1.53419913,8.30822511 1.57229437,8.29437229 1.6,8.31515152 M15.2415584,8.79307359 L18.4623377,8.79307359 L18.4623377,10.5662338 C18.4623377,10.6112554 18.5004329,10.6493506 18.5454545,10.6493506 L21.2398268,10.6493506 C21.2883117,10.6493506 21.3298701,10.6147186 21.3367965,10.5662338 L21.8701299,7.2 C21.8770563,7.15497835 21.9359307,7.14805195 21.95671,7.18614719 C22.6597403,8.64069264 23.0580087,10.2718615 23.0580087,12 C23.0580087,13.9497835 22.5558442,15.778355 21.6727273,17.3714286 C21.6484848,17.412987 21.5896104,17.395671 21.5896104,17.3506494 L21.5896104,14.2718615 C21.5896104,14.2268398 21.5515152,14.1887446 21.5064935,14.1887446 L18.552381,14.1887446 C18.5073593,14.1887446 18.4692641,14.2268398 18.4692641,14.2718615 L18.4692641,15.9099567 L17.1705628,15.9099567 C16.5714286,15.9099567 16.0831169,15.4251082 16.0831169,14.8225108 L16.0796537,9.47878788 C16.0796537,9.42683983 16.0554113,9.38181818 16.0138528,9.35064935 L15.2415584,8.79307359 Z M11.9722944,0.0277039518 C5.35757576,0.0311688312 -2.98372438e-16,5.395671 0.00346152542,12.0103896 C0.00692640693,18.6251082 5.37142857,23.982684 11.982684,23.9792225 C18.5974026,23.9757576 23.9549784,18.6112554 23.9515168,12 C23.9480519,5.38874459 18.5835498,0.0242424242 11.9722944,0.0277039518" id="Shape"></path>
      </g>
    </g>
  </g>
</svg>
