<?xml version="1.0" encoding="UTF-8"?>
<svg width="67px" height="68px" viewBox="0 0 67 68" version="1.1" xmlns="http://www.w3.org/2000/svg" xmlns:xlink="http://www.w3.org/1999/xlink">
    <title>Group 5</title>
    <defs>
        <filter id="filter-1">
            <feColorMatrix in="SourceGraphic" type="matrix" values="0 0 0 0 1.000000 0 0 0 0 1.000000 0 0 0 0 1.000000 0 0 0 1.000000 0"></feColorMatrix>
        </filter>
    </defs>
    <g id="Page-1" stroke="none" stroke-width="1" fill="none" fill-rule="evenodd" stroke-linecap="round" stroke-linejoin="round">
        <g id="Group-5" transform="translate(-176.000000, -130.000000)" filter="url(#filter-1)">
            <g transform="translate(177.000000, 131.000000)">
                <path d="M54.5101,6.0897 C53.1311,5.0867 45.4751,0.7947 41.7331,-0.0003 C39.6591,2.0737 36.6571,5.4687 32.2261,5.4687 C27.7941,5.4687 24.7931,2.0737 22.7191,-0.0003 C18.9771,0.7947 11.3221,5.0867 9.9421,6.0897 C4.5401,10.0207 0.0001,14.8007 0.0001,14.8007 L5.4971,27.9417 L12.1041,25.6657 L12.8511,63.5737 C12.8511,63.5737 20.3121,65.9997 32.2261,65.9997 C44.1401,65.9997 51.6021,63.5737 51.6021,63.5737 L52.3481,25.6657 L58.9541,27.9417 L64.4521,14.8007 C64.4521,14.8007 59.9111,10.0207 54.5101,6.0897 Z" id="Stroke-1" stroke="#231F20" stroke-width="2"></path>
                <path d="M24.9232,26.7411 C24.9232,22.7141 28.1992,19.4371 32.2262,19.4371 C36.2532,19.4371 39.5292,22.7141 39.5292,26.7411 C39.5292,30.7681 36.2532,34.0441 32.2262,34.0441 C28.1992,34.0441 24.9232,30.7681 24.9232,26.7411 Z M46.5472,15.1091 L17.9052,15.1091 L17.9052,19.3591 L23.3482,19.3591 C21.6792,21.3631 20.6732,23.9361 20.6732,26.7411 C20.6732,29.5101 21.6532,32.0521 23.2832,34.0441 L17.9052,34.0441 L17.9052,38.2941 L46.5472,38.2941 L46.5472,34.0441 L41.1692,34.0441 C42.7992,32.0521 43.7792,29.5101 43.7792,26.7411 C43.7792,23.9361 42.7732,21.3631 41.1052,19.3591 L46.5472,19.3591 L46.5472,15.1091 Z" id="Stroke-3" stroke="#231F20" stroke-width="2"></path>
            </g>
        </g>
    </g>
</svg>