<?xml version="1.0" encoding="UTF-8"?>
<svg width="56px" height="71px" viewBox="0 0 56 71" version="1.1" xmlns="http://www.w3.org/2000/svg" xmlns:xlink="http://www.w3.org/1999/xlink">
    <title>Group 20</title>
    <defs>
        <filter id="filter-1">
            <feColorMatrix in="SourceGraphic" type="matrix" values="0 0 0 0 1.000000 0 0 0 0 1.000000 0 0 0 0 1.000000 0 0 0 1.000000 0"></feColorMatrix>
        </filter>
        <polygon id="path-2" points="0 70.6375 55.179 70.6375 55.179 0.0005 0 0.0005"></polygon>
    </defs>
    <g id="Page-1" stroke="none" stroke-width="1" fill="none" fill-rule="evenodd">
        <g id="Group-20" transform="translate(-181.000000, -128.000000)" filter="url(#filter-1)">
            <g transform="translate(181.000000, 128.000000)">
                <path d="M51.3836,69.6373 L3.7946,69.6373 C2.2576,69.6373 0.9996,68.3803 0.9996,66.8423 L0.9996,3.7953 C0.9996,2.2583 2.2576,1.0003 3.7946,1.0003 L51.3836,1.0003 C52.9206,1.0003 54.1786,2.2583 54.1786,3.7953 L54.1786,66.8423 C54.1786,68.3803 52.9206,69.6373 51.3836,69.6373 Z" id="Stroke-1" stroke="#231F20" stroke-width="2" stroke-linecap="round" stroke-linejoin="round"></path>
                <path d="M29.2898,63.2769 C29.2898,64.2159 28.5288,64.9779 27.5888,64.9779 C26.6498,64.9779 25.8888,64.2159 25.8888,63.2769 C25.8888,62.3379 26.6498,61.5759 27.5888,61.5759 C28.5288,61.5759 29.2898,62.3379 29.2898,63.2769" id="Fill-3" fill="#231F20"></path>
                <path d="M49.3821,50.9503 L49.3821,51.8153 L47.2121,51.8153 L47.2121,47.3673 L49.3101,47.3673 L49.3101,48.2313 L48.1801,48.2313 L48.1801,49.1273 L49.0351,49.1273 L49.0351,50.0113 L48.1801,50.0113 L48.1801,50.9503 L49.3821,50.9503 Z M42.8881,48.2313 L42.8881,51.8153 L41.9191,51.8153 L41.9191,48.2313 L41.3031,48.2313 L41.3031,47.3673 L43.5041,47.3673 L43.5041,48.2313 L42.8881,48.2313 Z M36.6271,51.8153 L37.5961,51.8153 L37.5961,47.3673 L36.6271,47.3673 L36.6271,51.8153 Z M31.8671,51.8153 L30.8981,49.6003 L30.8921,49.6003 L30.8921,51.8153 L29.9471,51.8153 L29.9471,47.3673 L30.7901,47.3673 L31.6941,49.4323 L31.6991,49.4323 L31.6991,47.3673 L32.6441,47.3673 L32.6441,51.8153 L31.8671,51.8153 Z M24.9961,51.8153 L25.9651,51.8153 L25.9651,47.3673 L24.9961,47.3673 L24.9961,51.8153 Z M20.1821,48.2313 L20.1821,49.1273 L21.0371,49.1273 L21.0371,50.0113 L20.1821,50.0113 L20.1821,51.8153 L19.2131,51.8153 L19.2131,47.3673 L21.2761,47.3673 L21.2761,48.2313 L20.1821,48.2313 Z M14.4531,51.8153 L13.4841,49.6003 L13.4781,49.6003 L13.4781,51.8153 L12.5331,51.8153 L12.5331,47.3673 L13.3771,47.3673 L14.2791,49.4323 L14.2851,49.4323 L14.2851,47.3673 L15.2301,47.3673 L15.2301,51.8153 L14.4531,51.8153 Z M7.5821,51.8153 L8.5511,51.8153 L8.5511,47.3673 L7.5821,47.3673 L7.5821,51.8153 Z" id="Fill-5" fill="#231F20"></path>
                <path d="M38.6096,13.1851 C40.4456,14.6831 41.9826,16.6081 43.0516,18.9001 C44.2586,21.4891 44.7246,24.2351 44.5366,26.8961 C44.5316,26.9641 44.4386,26.9811 44.4096,26.9191 L42.5026,22.8291 C42.4736,22.7681 42.4016,22.7411 42.3396,22.7691 L38.4156,24.6001 C38.3536,24.6281 38.3266,24.7011 38.3556,24.7631 L39.3716,26.9401 L37.6456,27.7461 C36.8476,28.1171 35.8996,27.7721 35.5276,26.9751 L32.2166,19.8751 C32.1856,19.8081 32.1246,19.7591 32.0506,19.7451 L30.6836,19.4791 L34.9616,17.4841 L36.0606,19.8391 C36.0886,19.9011 36.1616,19.9281 36.2236,19.8991 L39.8046,18.2281 C39.8686,18.1991 39.9016,18.1271 39.8816,18.0601 L38.5036,13.2551 C38.4856,13.1931 38.5596,13.1441 38.6096,13.1851 L38.6096,13.1851 Z M20.2036,24.3661 C21.0016,23.9941 21.9486,24.3391 22.3206,25.1371 L25.3836,31.7061 C25.7556,32.5031 25.4106,33.4511 24.6126,33.8221 L22.8646,34.6381 L18.8806,26.0941 C18.8496,26.0261 18.7876,25.9781 18.7146,25.9641 L17.3476,25.6981 L20.2036,24.3661 Z M14.1146,36.0521 L15.7026,36.0521 C15.7266,36.0521 15.7396,36.0241 15.7246,36.0051 C14.9026,34.9921 14.1896,33.8631 13.6126,32.6271 C12.8166,30.9181 12.3436,29.1411 12.1676,27.3651 C12.1626,27.3161 12.2066,27.2771 12.2546,27.2861 L14.0986,27.6441 C14.1736,27.6591 14.2366,27.7091 14.2696,27.7781 L18.1156,36.0281 C18.1236,36.0421 18.1376,36.0521 18.1536,36.0521 L29.3446,36.0521 C29.3596,36.0521 29.3736,36.0431 29.3806,36.0301 L31.1796,32.7861 C31.2156,32.7211 31.2176,32.6431 31.1866,32.5761 L25.3566,20.0731 C25.3246,20.0051 25.2636,19.9571 25.1906,19.9431 L21.1626,19.1601 C21.0836,19.1441 21.0016,19.1541 20.9276,19.1881 L12.4056,23.1631 C12.3576,23.1851 12.3026,23.1441 12.3116,23.0911 C13.1666,17.9961 16.4326,13.3931 21.4686,11.0441 C26.5056,8.6961 32.1306,9.1521 36.5836,11.7731 C36.6296,11.8001 36.6256,11.8691 36.5776,11.8911 L34.4596,12.8791 C34.3896,12.9121 34.3446,12.9821 34.3446,13.0591 L34.3446,14.2821 L32.4236,13.9081 C32.3446,13.8931 32.2626,13.9031 32.1896,13.9371 L28.8036,15.5161 C28.7306,15.5501 28.6706,15.6061 28.6306,15.6771 L26.6416,19.2661 C26.6056,19.3311 26.6026,19.4091 26.6336,19.4771 L32.4646,31.9791 C32.4956,32.0471 32.5576,32.0951 32.6306,32.1091 L36.6586,32.8931 C36.7376,32.9081 36.8196,32.8981 36.8926,32.8641 L44.0166,29.5421 C44.0666,29.5181 44.1226,29.5641 44.1096,29.6181 C43.5386,31.9461 42.4576,34.1361 40.9316,36.0151 C40.9206,36.0301 40.9306,36.0521 40.9496,36.0521 L42.5426,36.0521 C42.5556,36.0521 42.5686,36.0451 42.5766,36.0341 C46.1676,31.0441 47.0286,24.3111 44.2456,18.3431 C40.1476,9.5541 29.7006,5.7511 20.9116,9.8501 C12.1226,13.9481 8.3196,24.3951 12.4186,33.1841 C12.8946,34.2061 13.4576,35.1591 14.0926,36.0411 C14.0976,36.0481 14.1066,36.0521 14.1146,36.0521 L14.1146,36.0521 Z" id="Fill-7" fill="#231F20"></path>
                <polygon id="Fill-9" fill="#231F20" points="25.3147 41.4918 25.1487 42.4278 25.1367 42.4278 24.9597 41.4918 24.1067 37.5018 22.1067 37.5018 24.2017 46.3068 26.0017 46.3068 28.0017 37.5018 26.0957 37.5018"></polygon>
                <mask id="mask-3" fill="white">
                    <use xlink:href="#path-2"></use>
                </mask>
                <g id="Clip-12"></g>
                <polygon id="Fill-11" fill="#231F20" mask="url(#mask-3)" points="19.882 46.3065 21.799 46.3065 21.799 37.5015 19.882 37.5015"></polygon>
                <polygon id="Fill-13" fill="#231F20" mask="url(#mask-3)" points="16.9588 41.5904 16.9468 41.5904 15.1598 37.5024 13.4908 37.5024 13.4908 46.3064 15.3608 46.3064 15.3608 41.9234 15.3728 41.9234 17.2908 46.3064 18.8288 46.3064 18.8288 37.5024 16.9588 37.5024"></polygon>
                <path d="M10.5442,44.5582 L9.1472,44.5582 L9.1472,37.5022 L7.9482,37.5022 L7.2412,37.5022 L5.7432,37.5022 L7.2412,38.7492 L7.2412,44.8412 C7.2412,45.6542 7.5852,46.3072 8.6502,46.3072 L11.0652,46.3072 C12.1182,46.3072 12.4612,45.6542 12.4612,44.8412 L12.4612,37.5022 L10.5442,37.5022 L10.5442,44.5582 Z" id="Fill-14" fill="#231F20" mask="url(#mask-3)"></path>
                <polygon id="Fill-15" fill="#231F20" mask="url(#mask-3)" points="30.2737 42.7354 31.9667 42.7354 31.9667 40.9864 30.2737 40.9864 30.2737 39.2134 32.5107 39.2134 32.5107 37.5024 28.3567 37.5024 28.3567 46.3064 32.6527 46.3064 32.6527 44.5944 30.2737 44.5944"></polygon>
                <path d="M42.8548,40.9747 L41.6838,40.9007 C41.2928,40.8757 41.1508,40.7527 41.1508,40.3097 L41.1508,39.6207 C41.1508,39.3987 41.3048,39.2137 41.5178,39.2137 L41.9668,39.2137 C42.1688,39.2137 42.3338,39.3987 42.3338,39.6207 L42.3338,40.1617 L44.2048,39.7797 L44.2048,38.9677 C44.2048,38.1547 43.8488,37.5017 42.7958,37.5017 L40.6418,37.5017 C39.5768,37.5017 39.2328,38.1547 39.2328,38.9677 L39.2328,41.2087 C39.2328,42.0827 39.6238,42.6247 40.6418,42.6857 L41.8018,42.7607 C42.2158,42.7847 42.3338,42.9077 42.3338,43.3267 L42.3338,44.1887 C42.3338,44.4107 42.1688,44.5947 41.9668,44.5947 L41.2928,44.5947 C41.0918,44.5947 40.9378,44.4107 40.9378,44.1887 L40.9378,43.5727 L39.0558,43.9547 L39.0558,44.8417 C39.0558,45.6547 39.4108,46.3067 40.4638,46.3067 L42.8548,46.3067 C43.9088,46.3067 44.2638,45.6547 44.2638,44.8417 L44.2638,42.4647 C44.2638,41.5907 43.8728,41.0367 42.8548,40.9747" id="Fill-16" fill="#231F20" mask="url(#mask-3)"></path>
                <polygon id="Fill-17" fill="#231F20" mask="url(#mask-3)" points="47.0564 44.5948 47.0564 42.7358 48.7494 42.7358 48.7494 40.9868 47.0564 40.9868 47.0564 39.2138 49.2934 39.2138 49.2934 37.5018 45.1394 37.5018 45.1394 46.3068 49.4354 46.3068 49.4354 44.5948"></polygon>
                <path d="M36.4876,40.8638 C36.4876,41.0858 36.3216,41.2698 36.1206,41.2698 L35.2206,41.2698 L35.2206,39.2138 L36.1206,39.2138 C36.3216,39.2138 36.4876,39.3988 36.4876,39.6198 L36.4876,40.8638 Z M38.4046,41.5288 L38.4046,38.9678 C38.4046,38.1548 38.0496,37.5018 36.9966,37.5018 L33.3036,37.5018 L33.3036,46.3068 L35.2206,46.3068 L35.2206,42.9818 L35.3036,42.9818 L36.6176,46.3068 L38.7956,46.3068 L37.3756,42.9448 C38.1326,42.8088 38.4046,42.2308 38.4046,41.5288 L38.4046,41.5288 Z" id="Fill-18" fill="#231F20" mask="url(#mask-3)"></path>
                <line x1="0.9998" y1="58.0557" x2="54.1788" y2="58.0557" id="Stroke-19" stroke="#231F20" stroke-width="2" stroke-linecap="round" stroke-linejoin="round" mask="url(#mask-3)"></line>
            </g>
        </g>
    </g>
</svg>