<svg id="Layer_1" data-name="Layer 1" xmlns="http://www.w3.org/2000/svg" viewBox="0 0 706.84 233.34"><defs><style>.cls-1{fill:#ffffff;}</style></defs><path class="cls-1" d="M55.87,129.83l18.79-9.23a10.58,10.58,0,0,1,14.16,4.83l21.23,43.22a10.57,10.57,0,0,1-4.83,14.16l-11.5,5.65-27.61-56.2a1.53,1.53,0,0,0-1.12-.84Zm120.54,95.79a107.65,107.65,0,0,1-93.35.86.44.44,0,0,1,0-.79l51.79-25.45a2.46,2.46,0,0,0,1.12-1.09l12.73-24.1a1.54,1.54,0,0,0,0-1.4l-40.4-82.26a1.55,1.55,0,0,0-1.13-.84L80.32,85.89a2.53,2.53,0,0,0-1.55.23L22.71,113.66a.45.45,0,0,1-.64-.46A107.9,107.9,0,0,1,181.75,34.76a.44.44,0,0,1,0,.78L167.8,42.38a1.32,1.32,0,0,0-.74,1.22l.16,8.12L154.41,49.5a2.52,2.52,0,0,0-1.55.22L130.59,60.66a2.56,2.56,0,0,0-1.13,1.1l-12.73,24.1a1.54,1.54,0,0,0,0,1.4l40.41,82.26a1.56,1.56,0,0,0,1.12.84L185.1,175a2.51,2.51,0,0,0,1.55-.23l46.86-23a.44.44,0,0,1,.63.49,107.66,107.66,0,0,1-57.73,73.36M22.26,141.07l12.29,2.13a1.63,1.63,0,0,1,1.16.86l37.41,76.17a.44.44,0,0,1-.62.58A108,108,0,0,1,21.69,141.6a.48.48,0,0,1,.57-.53M143.61,86.73l28.14-13.82,7.61,15.49a.83.83,0,0,0,1.1.37L204,77.2a1,1,0,0,0,.49-1.13l-9.8-31.73a.44.44,0,0,1,.69-.48,108.06,108.06,0,0,1,41.21,90.27.44.44,0,0,1-.83.17l-13.22-26.91a.82.82,0,0,0-1.09-.38L195.65,119.7a.81.81,0,0,0-.37,1.09l7,14.33L191,140.7a10.59,10.59,0,0,1-14.17-4.84L153.85,89.15a1.58,1.58,0,0,0-1.13-.84ZM77.41,24.09A116.65,116.65,0,1,0,233.53,77.36,116.65,116.65,0,0,0,77.41,24.09" transform="translate(-12.16 -12.12)"/><path class="cls-1" d="M311.13,42.78h-17a.4.4,0,0,0-.4.4V142.5H280.53A1.49,1.49,0,0,1,279,141V43.18a.39.39,0,0,0-.39-.4H261.81a.4.4,0,0,0-.4.4V149.49a10.78,10.78,0,0,0,10.78,10.78h38.94a.4.4,0,0,0,.4-.4V43.18A.4.4,0,0,0,311.13,42.78Z" transform="translate(-12.16 -12.12)"/><path class="cls-1" d="M381.52,42.78h-17a.4.4,0,0,0-.4.4v60.51L342.82,43.1a.38.38,0,0,0-.38-.32h-15.6a.39.39,0,0,0-.39.4V159.87a.39.39,0,0,0,.39.4h16.84a.39.39,0,0,0,.39-.4V100l22.42,60a.4.4,0,0,0,.39.32h14.64a.4.4,0,0,0,.39-.4V43.18A.4.4,0,0,0,381.52,42.78Z" transform="translate(-12.16 -12.12)"/><rect class="cls-1" x="384.66" y="30.67" width="17.63" height="117.49" rx="0.4"/><path class="cls-1" d="M477,42.78h-17a.41.41,0,0,0-.4.38l-7.92,99.34-7.89-99.34a.4.4,0,0,0-.4-.38h-17a.39.39,0,0,0-.29.13.38.38,0,0,0-.11.29l8.8,116.7a.39.39,0,0,0,.39.37h33a.4.4,0,0,0,.4-.37l8.79-116.7a.37.37,0,0,0-.1-.29A.41.41,0,0,0,477,42.78Z" transform="translate(-12.16 -12.12)"/><path class="cls-1" d="M593.43,106.53v-53a10.72,10.72,0,0,0-10.64-10.78H543.85a.4.4,0,0,0-.39.4V159.87a.4.4,0,0,0,.39.4h16.84a.4.4,0,0,0,.4-.4V117.16h9l7.6,42.78a.39.39,0,0,0,.39.33h17.61a.38.38,0,0,0,.39-.46L587.58,116A10.59,10.59,0,0,0,593.43,106.53Zm-18.54-9.14a2.2,2.2,0,0,1-2.2,2.2H560.06V60.54h12.63a2.2,2.2,0,0,1,2.2,2.2Z" transform="translate(-12.16 -12.12)"/><path class="cls-1" d="M648.07,42.78H618.72a10.38,10.38,0,0,0-10.38,10.38V97.44a10.38,10.38,0,0,0,10.38,10.38h22V142.5H626V117.93a.19.19,0,0,0-.28-.17l-17.24,8.14a.18.18,0,0,0-.11.17v23.82a10.38,10.38,0,0,0,10.38,10.38h29.35a10.42,10.42,0,0,0,10.39-10.38V100.57a10.39,10.39,0,0,0-10.39-10.38H626V60.41h14.72v20.9a.32.32,0,0,0,.46.29l17.12-8.1a.35.35,0,0,0,.19-.3v-20A10.39,10.39,0,0,0,648.07,42.78Z" transform="translate(-12.16 -12.12)"/><path class="cls-1" d="M715.72,142.5H691V107.82h20.38a.4.4,0,0,0,.4-.4V90.58a.4.4,0,0,0-.4-.39H691V60.41h22.8a.41.41,0,0,0,.37-.27L719,43.31a.42.42,0,0,0-.05-.36.4.4,0,0,0-.33-.17H673.77a.4.4,0,0,0-.4.4V159.87a.4.4,0,0,0,.4.4h42a.4.4,0,0,0,.39-.4v-17A.4.4,0,0,0,715.72,142.5Z" transform="translate(-12.16 -12.12)"/><path class="cls-1" d="M528.72,60.41a.41.41,0,0,0,.38-.27l4.81-16.83a.39.39,0,0,0-.06-.36.37.37,0,0,0-.32-.17H488.7a.4.4,0,0,0-.4.4V159.87a.4.4,0,0,0,.4.4h41.94a.4.4,0,0,0,.4-.4v-17a.4.4,0,0,0-.4-.4H505.93V107.82h20.38a.39.39,0,0,0,.39-.4V90.58a.39.39,0,0,0-.39-.39H505.93V60.41Z" transform="translate(-12.16 -12.12)"/><path class="cls-1" d="M261.47,176.23H274v38.48H261.47Z" transform="translate(-12.16 -12.12)"/><path class="cls-1" d="M302.52,176.23H313l28.39,23.83h.39V176.23h11v38.48H342.13l-28.19-24.09h-.33v24.09H302.52Z" transform="translate(-12.16 -12.12)"/><path class="cls-1" d="M381.32,176.23h38.49v8.12H393.87v9.77h21.52v7.66H393.87v12.93H381.32Z" transform="translate(-12.16 -12.12)"/><path class="cls-1" d="M444.55,176.23h12.54v38.48H444.55Z" transform="translate(-12.16 -12.12)"/><path class="cls-1" d="M485.6,176.23H496l28.38,23.83h.4V176.23h11v38.48H525.21L497,190.62h-.33v24.09H485.6Z" transform="translate(-12.16 -12.12)"/><path class="cls-1" d="M564.4,176.23H577v38.48H564.4Z" transform="translate(-12.16 -12.12)"/><path class="cls-1" d="M601.36,176.23h50.1v8.71H632.58v29.77H620V184.94H601.36Z" transform="translate(-12.16 -12.12)"/><path class="cls-1" d="M675.87,176.23h40.27v8.12H688.42v7.26h23.36v7.2H688.42v7.72H716.8v8.18H675.87Z" transform="translate(-12.16 -12.12)"/></svg>